<svg id="Layer_1" data-name="Layer 1" xmlns="http://www.w3.org/2000/svg" width="32.08" height="42.17" viewBox="0 0 32.08 42.17"><defs><style>.cls-1{fill:#af1e40;}.cls-2{fill:none;stroke:#af1e40;}</style></defs><path class="cls-1" d="M31.39,30.13c.19-4.42,2.87-7.37,7.18-7.89a7.85,7.85,0,0,1,8.81,6.15,11.84,11.84,0,0,1,.21,2.22c0,1.64,0,1.68,0,2.14V34.3H41.49c-3.32,0-6.72,0-10.12,0v-4A1.23,1.23,0,0,0,31.39,30.13Zm-4.74,8.19c0-1.13.18-1.31,1.29-1.31H51.08c1,0,1.25.22,1.25,1.24q0,9.2,0,18.39c0,1.11-.21,1.32-1.35,1.32H28c-1.09,0-1.3-.21-1.3-1.31Zm24.54-4h-.91v-4a10.8,10.8,0,0,0-21.59-.41.28.28,0,0,0,0,.13v4.24H28a4.09,4.09,0,0,0-4,4c0,4.39,0,8.86,0,13.18,0,1.74,0,3.47,0,5.21v.21a3.88,3.88,0,0,0,3.86,3.75H51.12A3.91,3.91,0,0,0,55,56.76V38.2A4,4,0,0,0,51.19,34.3Z" transform="translate(-23.65 -19.38)"/><path class="cls-2" d="M31.59,30.53c.19-4.41,2.87-7.36,7.18-7.89a7.84,7.84,0,0,1,8.81,6.16A11.68,11.68,0,0,1,47.79,31c0,1.64,0,1.67,0,2.13v1.56H31.57v-4A1.49,1.49,0,0,0,31.59,30.53Zm-4.74,8.19c0-1.12.18-1.3,1.29-1.3H51.28c1,0,1.26.22,1.26,1.23V57c0,1.12-.22,1.33-1.36,1.33h-23c-1.09,0-1.3-.21-1.3-1.31Zm24.54-4h-.91v-4a10.8,10.8,0,0,0-21.59-.4.51.51,0,0,0,0,.13V34.7h-.69a4.11,4.11,0,0,0-4,4c0,4.39,0,8.85,0,13.17,0,1.74,0,3.48,0,5.22v.21A3.87,3.87,0,0,0,28,61.05H51.32a3.91,3.91,0,0,0,3.9-3.88V38.61A3.92,3.92,0,0,0,51.39,34.71Z" transform="translate(-23.65 -19.38)"/><path class="cls-1" d="M40.71,45.55a1.22,1.22,0,0,1,0,.27.88.88,0,0,1-1,.72h-.08a1,1,0,0,1-.71-.24,1.15,1.15,0,0,1-.23-.82,1.08,1.08,0,0,1,.24-.75,1.18,1.18,0,0,1,.82-.22c.7,0,1,.3,1,1Zm-2.77,3.14a.74.74,0,0,1,.42.79h0c0,1,0,2.06,0,3.1v.09A1.31,1.31,0,0,0,39.68,54h0A1.36,1.36,0,0,0,41,52.58V51.23h0v-.82c0-.34,0-.7,0-1v0a.55.55,0,0,1,.35-.6,3.79,3.79,0,0,0,1.75-2A3.68,3.68,0,1,0,36,45.3,3.52,3.52,0,0,0,37.94,48.69Z" transform="translate(-23.65 -19.38)"/><path class="cls-2" d="M40.71,45.55a1.22,1.22,0,0,1,0,.27.88.88,0,0,1-1,.72h-.08a1,1,0,0,1-.71-.24,1.15,1.15,0,0,1-.23-.82,1.08,1.08,0,0,1,.24-.75,1.18,1.18,0,0,1,.82-.22c.7,0,1,.3,1,1Zm-2.77,3.14a.74.74,0,0,1,.42.79h0c0,1,0,2.06,0,3.1v.09A1.31,1.31,0,0,0,39.68,54h0A1.36,1.36,0,0,0,41,52.58V51.23h0v-.82c0-.34,0-.7,0-1v0a.55.55,0,0,1,.35-.6,3.79,3.79,0,0,0,1.75-2A3.68,3.68,0,1,0,36,45.3,3.52,3.52,0,0,0,37.94,48.69Z" transform="translate(-23.65 -19.38)"/></svg>